<?xml version="1.0" encoding="UTF-8" standalone="no"?>
<svg
   width="161"
   height="30"
   viewBox="0 0 161 30"
   fill="none"
   version="1.1"
   id="svg33"
   sodipodi:docname="logo.svg"
   inkscape:version="1.3.2 (091e20e, 2023-11-25, custom)"
   xmlns:inkscape="http://www.inkscape.org/namespaces/inkscape"
   xmlns:sodipodi="http://sodipodi.sourceforge.net/DTD/sodipodi-0.dtd"
   xmlns="http://www.w3.org/2000/svg"
   xmlns:svg="http://www.w3.org/2000/svg">
  <sodipodi:namedview
     id="namedview33"
     pagecolor="#ffffff"
     bordercolor="#000000"
     borderopacity="0.25"
     inkscape:showpageshadow="2"
     inkscape:pageopacity="0.0"
     inkscape:pagecheckerboard="0"
     inkscape:deskcolor="#d1d1d1"
     showgrid="false"
     inkscape:zoom="8.7142857"
     inkscape:cx="59.5"
     inkscape:cy="15.032787"
     inkscape:window-width="1920"
     inkscape:window-height="992"
     inkscape:window-x="-8"
     inkscape:window-y="-8"
     inkscape:window-maximized="1"
     inkscape:current-layer="svg33" />
  <path
     d="m 14.335003,11.412492 h -4.02576 c -0.4815897,0.0014 -0.9430577,0.1933 -1.2835957,0.5339 -0.340537,0.3405 -0.5324608,0.802 -0.533844,1.2836 v 3.5312 c 0.00154,0.4815 0.19353,0.9428 0.534051,1.2832 0.34052,0.3404 0.801899,0.5323 1.2833887,0.5336 h 4.02576 c 0.04429,-10e-5 0.08672,-0.0178 0.11804,-0.0491 0.03132,-0.0313 0.04899,-0.0738 0.04914,-0.118 v -6.8312 c -1.5e-4,-0.0443 -0.01782,-0.0867 -0.04914,-0.118 -0.03132,-0.0314 -0.07375,-0.049 -0.11804,-0.0492 z"
     fill="url(#paint0_linear_26_2690)"
     id="path1"
     style="fill:url(#paint0_linear_26_2690)" />
  <path
     d="m 29.217703,11.412492 h 4.0257 c 0.4816,0.0014 0.943,0.1934 1.2834,0.5339 0.3405,0.3406 0.5323,0.802 0.5335,1.2836 v 3.5312 c -0.0014,0.4814 -0.1933,0.9427 -0.5337,1.2832 -0.3404,0.3404 -0.8017,0.5323 -1.2832,0.5336 h -4.0257 c -0.0444,0 -0.087,-0.0176 -0.1184,-0.0489 -0.0315,-0.0313 -0.0492,-0.0739 -0.0494,-0.1182 v -6.8312 c 2e-4,-0.0444 0.0179,-0.0869 0.0494,-0.1182 0.0314,-0.0314 0.074,-0.049 0.1184,-0.049 z"
     fill="url(#paint1_linear_26_2690)"
     id="path2"
     style="fill:url(#paint1_linear_26_2690)" />
  <path
     d="m 21.133403,3.1904118 h 1.2844 v 5.07719 h -1.2844 z"
     fill="url(#paint2_linear_26_2690)"
     id="path3"
     style="fill:url(#paint2_linear_26_2690)" />
  <path
     d="m 14.27181,26.045322 c 1.93445,1.3415 4.23236,2.0603 6.58646,2.0603 6.3832,0 11.5583,-5.1744 11.5583,-11.5576 0,-6.383201 -5.1751,-11.5582707 -11.5583,-11.5582707 -2.7082,1.4e-4 -5.33031,0.95115 -7.40894,2.68709 -2.07864,1.73598 -3.4817795,4.1465807 -3.9646195,6.8113807 -0.36797,2.2142 -0.18481,4.485 0.5332795,6.6116 0.71809,2.1267 1.94899,4.0437 3.58393,5.5816 l 0.12174,-0.801 z"
     fill="url(#paint3_linear_26_2690)"
     id="path4"
     style="fill:url(#paint3_linear_26_2690)" />
  <path
     d="m 14.524223,12.519392 c 0.41519,-0.6522 0.91595,-1.2459 1.4889,-1.765 0.74843,0.7715 1.64415,1.3849 2.63408,1.8038 0.9899,0.4188 2.0538,0.6347 3.1287,0.6347 1.0749,0 2.1389,-0.2159 3.1288,-0.6347 0.9899,-0.4189 1.8856,-1.0323 2.634,-1.8038 1.4505,1.3125 2.4094,3.0809 2.7182,5.0126 0.3088,1.9316 -0.0511,3.9108 -1.0201,5.6101 h -0.0088 c -0.5758,0.9575 -1.3896,1.7497 -2.3623,2.2995 -0.9727,0.5498 -2.0711,0.8385 -3.1884,0.8379 h -6.27313 l -2.88461,2.7379 c -1.41971,-2.1957 -2.17458,-4.7549 -2.17376,-7.3695 8.3e-4,-2.6147 0.75732,-5.1734 2.17842,-7.3682 z"
     fill="#ffffff"
     id="path5" />
  <path
     d="m 21.776003,-0.22950813 c 0.4751,1.1521e-4 0.9395,0.14110593 1.3345,0.40514293 0.395,0.264037 0.7028,0.639267 0.8845,1.078237 0.1818,0.43897 0.2293,0.92197 0.1365,1.38793 -0.0928,0.46596 -0.3216,0.89395 -0.6576,1.22986 -0.336,0.33591 -0.764,0.56465 -1.23,0.65729 -0.466,0.09265 -0.949,0.04504 -1.3879,-0.1368 -0.4389,-0.18184 -0.8141,-0.48975 -1.078,-0.88479 -0.264,-0.39504 -0.4049,-0.85948 -0.4049,-1.33458 0,-0.31552 0.0622,-0.62796 0.183,-0.91945 0.1207,-0.2915 0.2977,-0.556351 0.5209,-0.779432 0.2231,-0.223081 0.488,-0.400019 0.7795,-0.520711 0.2916,-0.120692 0.604,-0.18277343 0.9195,-0.18269693 z"
     fill="url(#paint4_linear_26_2690)"
     id="path6"
     style="fill:url(#paint4_linear_26_2690)" />
  <path
     d="m 26.200003,18.418992 c 0.8943,0 1.6197,-0.7254 1.6197,-1.62 0,-0.8946 -0.7236,-1.62 -1.6197,-1.62 -0.8961,0 -1.6203,0.7254 -1.6203,1.62 0,0.8946 0.7254,1.62 1.6203,1.62 z"
     fill="url(#paint5_linear_26_2690)"
     id="path7"
     style="fill:url(#paint5_linear_26_2690)" />
  <path
     d="m 17.462413,18.418992 c -0.89472,0 -1.62002,-0.7254 -1.62002,-1.62 0,-0.8946 0.72349,-1.62 1.62002,-1.62 0.89654,0 1.61999,0.7254 1.61999,1.62 0,0.8946 -0.72526,1.62 -1.61999,1.62 z"
     fill="url(#paint6_linear_26_2690)"
     id="path8"
     style="fill:url(#paint6_linear_26_2690)" />
  <path
     d="m 10.402703,15.061992 c 0.23173,-1.2824 0.67882,-2.5163 1.3223,-3.6495 h -1.39162 c -0.25863,0.6743 -0.4536497,1.3713 -0.5825197,2.0819 -0.277482,1.667 -0.24311,3.371 0.10136,5.0254 0.13857,0.036 0.2809197,0.0556 0.4240697,0.0582 -0.07149,-0.7609 -0.07889,-1.5265 -0.02213,-2.2887 0.03029,-0.4089 0.07941,-0.818 0.14737,-1.2273 z"
     fill="#2bb688"
     id="path9" />
  <path
     d="m 33.150003,15.061992 c -0.2317,-1.2824 -0.6788,-2.5163 -1.3223,-3.6495 h 1.3917 c 0.2586,0.6743 0.4536,1.3713 0.5825,2.0819 0.2775,1.667 0.2431,3.371 -0.1014,5.0254 -0.1385,0.036 -0.2809,0.0556 -0.4241,0.0582 0.0715,-0.7609 0.0789,-1.5265 0.0222,-2.2887 -0.0303,-0.4089 -0.0794,-0.818 -0.1474,-1.2273 z"
     fill="#2bb688"
     id="path10" />
  <path
     d="m 27.539003,10.754392 c -0.7485,0.7715 -1.6442,1.3849 -2.6341,1.8038 -0.9899,0.4188 -2.0539,0.6347 -3.1288,0.6347 -1.0748,0 -2.1388,-0.2159 -3.1287,-0.6347 -0.98991,-0.4189 -1.88564,-1.0323 -2.63406,-1.8038 -0.57296,0.5191 -1.07372,1.1128 -1.48891,1.765 l -0.02214,0.0338 c -1.54512,2.402 -2.29247,5.2306 -2.13549,8.0824 0.1288,-2.3455 0.86466,-4.6173 2.13549,-6.5929 0.0076,-0.0117 0.01457,-0.0233 0.02214,-0.0344 0.41528,-0.6518 0.91604,-1.245 1.48891,-1.7638 0.74842,0.7715 1.64415,1.3849 2.63406,1.8037 0.9899,0.4189 2.0539,0.6347 3.1287,0.6347 1.0749,0 2.1389,-0.2158 3.1288,-0.6347 0.9899,-0.4188 1.8856,-1.0322 2.6341,-1.8037 1.6091,1.4536 2.6081,3.4626 2.796,5.623 0.021,-0.2455 0.0317,-0.4936 0.0321,-0.7445 7e-4,-1.2 -0.2504,-2.3868 -0.7372,-3.4836 -0.4868,-1.0968 -1.1983,-2.0793 -2.0886,-2.8838 z"
     fill="#2bb688"
     id="path11" />
  <path
     d="m 14.519633,27.255192 0.66989,-0.6361 2.21356,-2.1047 h 6.27422 c 1.1174,6e-4 2.2158,-0.2881 3.1885,-0.8379 0.9727,-0.5498 1.7865,-1.3419 2.3623,-2.2995 h 0.0088 c 0.4959,-0.866 0.8358,-1.8124 1.0042,-2.796 0.0388,-0.233 0.0693,-0.4703 0.0915,-0.7119 0.0221,-0.2415 0.0328,-0.4897 0.032,-0.7444 0,-0.1457 -0.0041,-0.2913 -0.0111,-0.4346 -0.0656,1.344 -0.4482,2.6535 -1.1166,3.8213 h -0.0088 c -0.5758,0.9575 -1.3896,1.7497 -2.3623,2.2995 -0.9727,0.5498 -2.0711,0.8385 -3.1885,0.8379 h -6.52878 l -2.62889,3.6116 z"
     fill="#2bb688"
     id="path12" />
  <path
     d="m 19.715403,20.516892 c 0,0 1.1868,1.0203 2.0407,1.0203 0.8538,0 2.0406,-1.0203 2.0406,-1.0203"
     stroke="#2bb688"
     stroke-width="1.2"
     stroke-linecap="round"
     id="path13" />
  <path
     id="path14"
     d="m 37.648438,6.5449219 c -0.913853,0 -1.725402,0.2032535 -2.435547,0.6035156 0.103066,0.1552051 0.157246,0.3867981 0.117187,0.6914063 -0.117335,0.8922132 -0.253028,1.7819098 -0.373047,2.6738282 -0.107314,0.86303 -0.216957,1.724558 -0.304687,2.589844 -0.114594,1.130209 -1.255329,1.014965 -1.140625,-0.115235 0.08908,-0.877711 0.199558,-1.753493 0.308593,-2.628906 0.107909,-0.8017178 0.227492,-1.6009386 0.335938,-2.4023438 -0.317469,0.3234465 -0.588628,0.6914829 -0.810547,1.1074219 -0.412199,0.7557793 -0.619141,1.6130139 -0.619141,2.5703129 v 12.847656 h 2.94336 V 11.255859 c 0,-0.386299 0.09008,-0.730903 0.271484,-1.033203 0.1813,-0.3191094 0.421951,-0.5691562 0.71875,-0.753906 0.2967,-0.1847498 0.625582,-0.2773438 0.988282,-0.2773438 0.362699,0 0.691481,0.092594 0.988281,0.2773438 0.313199,0.1847498 0.560787,0.4347966 0.742187,0.753906 0.1814,0.3023 0.273438,0.646904 0.273438,1.033203 v 8.439453 c 0,0.9909 0.204988,1.873886 0.617187,2.646485 0.4287,0.755799 1.01396,1.352363 1.75586,1.789062 0.758399,0.4198 1.600238,0.628907 2.523437,0.628907 0.956299,0 1.796085,-0.209107 2.521484,-0.628907 0.7419,-0.436699 1.32716,-1.033263 1.75586,-1.789062 0.428599,-0.772599 0.642578,-1.655585 0.642578,-2.646485 v -8.439453 c 0,-0.386299 0.09214,-0.730903 0.273438,-1.033203 0.181399,-0.3191094 0.419997,-0.5691562 0.716796,-0.753906 0.3132,-0.1847498 0.650973,-0.2773438 1.013672,-0.2773438 0.3627,0 0.691582,0.092594 0.988282,0.2773438 0.296799,0.1847498 0.528459,0.4347966 0.693359,0.753906 0.1813,0.3023 0.271484,0.646904 0.271484,1.033203 v 13.226563 h 2.96875 V 11.634766 c 0,-0.957299 -0.206941,-1.8145336 -0.61914,-2.5703129 C 55.363191,8.2918739 54.786821,7.680032 54.044922,7.2265625 53.319523,6.773093 52.461855,6.5449219 51.472656,6.5449219 c -0.972699,0 -1.839257,0.2281711 -2.597656,0.6816406 -0.741899,0.4534695 -1.318269,1.0653114 -1.730469,1.8378906 -0.412099,0.7557793 -0.617187,1.6130139 -0.617187,2.5703129 v 8.439453 c 0,0.369499 -0.09204,0.714103 -0.273438,1.033203 -0.1813,0.3023 -0.420097,0.545769 -0.716797,0.730469 -0.296799,0.184799 -0.625481,0.277343 -0.988281,0.277343 -0.3462,0 -0.668144,-0.09254 -0.964844,-0.277343 -0.296799,-0.1847 -0.535497,-0.428169 -0.716796,-0.730469 -0.1814,-0.3191 -0.273438,-0.663704 -0.273438,-1.033203 v -8.439453 c 0,-0.957299 -0.204988,-1.8145336 -0.617188,-2.5703129 C 41.564363,8.2918739 40.98604,7.680032 40.244141,7.2265625 39.502241,6.773093 38.637637,6.5449219 37.648438,6.5449219 Z" />
  <path
     id="path15"
     d="m 64.009766,6.8476562 c -0.894271,0 -1.709462,0.2210834 -2.44336,0.6621094 0.02297,0.018618 0.04523,0.037567 0.06836,0.058594 0.629119,0.5719607 1.255735,1.1472223 1.851562,1.7539062 0.08553,0.091082 0.171724,0.182908 0.25586,0.2753906 0.187807,-0.053461 0.383922,-0.080078 0.58789,-0.080078 h 6.652344 V 6.8476562 Z m -3.341797,1.3457032 c -0.352532,0.3338285 -0.657044,0.7153303 -0.91211,1.1484375 -0.428699,0.7557491 -0.644531,1.6044231 -0.644531,2.5449221 0,0.705399 0.166294,1.385916 0.496094,2.041015 0.3297,0.6382 0.798204,1.18322 1.408203,1.636719 -0.609999,0.4535 -1.087294,1.015701 -1.433594,1.6875 -0.329699,0.654999 -0.49414,1.352798 -0.49414,2.091797 0,0.940599 0.213978,1.804351 0.642578,2.59375 0.445199,0.772599 1.046288,1.394935 1.804687,1.865234 0.758399,0.4534 1.616067,0.679688 2.572266,0.679688 h 6.875 v -2.644531 h -6.503906 c -0.4781,0 -0.905957,-0.109826 -1.285157,-0.328125 -0.362699,-0.2351 -0.652887,-0.536751 -0.867187,-0.90625 -0.1978,-0.3863 -0.294922,-0.797676 -0.294922,-1.234375 0,-0.4535 0.09712,-0.864876 0.294922,-1.234375 0.2143,-0.3863 0.511425,-0.698394 0.890625,-0.933594 0.379199,-0.2351 0.815947,-0.351563 1.310547,-0.351563 h 5.589844 v -2.669921 h -5.738282 c -0.428599,0 -0.815909,-0.101235 -1.162109,-0.302735 -0.3462,-0.2184 -0.625544,-0.504722 -0.839844,-0.857422 -0.2144,-0.352699 -0.322265,-0.729713 -0.322265,-1.132812 0,-0.4534 0.09907,-0.856285 0.296874,-1.208985 0.109472,-0.180086 0.23704,-0.339777 0.38086,-0.480468 -0.02223,-0.02397 -0.04408,-0.0484 -0.06641,-0.07227 -0.576238,-0.5890563 -1.18429,-1.1439419 -1.792969,-1.6992188 -0.08454,-0.077122 -0.151448,-0.155201 -0.205078,-0.2324218 z" />
  <path
     id="path16"
     d="m 81.75,6.5449219 c -1.335499,0 -2.546667,0.2348086 -3.634766,0.7050781 -1.088099,0.4534695 -2.020022,1.0930464 -2.794922,1.9160156 -0.23245,0.2468702 -0.446677,0.5058512 -0.646484,0.7753906 0.810711,0.5188928 1.593548,1.0787278 2.429688,1.5585938 0.0058,0.0033 0.01176,0.0064 0.01758,0.0098 0.132329,-0.176925 0.2725,-0.346902 0.423828,-0.50586 0.527599,-0.571099 1.146569,-1.0148744 1.855469,-1.3339841 0.725399,-0.3191097 1.50871,-0.4785157 2.349609,-0.4785157 0.857299,1e-7 1.64061,0.159406 2.349609,0.4785157 0.7089,0.3023097 1.325917,0.7308571 1.853516,1.2851561 0.544099,0.5374 0.958082,1.175163 1.238281,1.914063 0.2968,0.738999 0.44336,1.535979 0.44336,2.392578 v 1.839843 c -0.133186,0.07793 -0.259377,0.156907 -0.386719,0.236329 0.831059,0.619625 1.633595,1.276507 2.455078,1.908203 0.298015,0.224657 0.598925,0.446268 0.900391,0.666015 v -4.65039 c 0,-1.209299 -0.207041,-2.333701 -0.619141,-3.375 C 89.572175,10.82862 88.979977,9.8960129 88.205078,9.0898438 87.430179,8.2836746 86.498255,7.6632321 85.410156,7.2265625 84.321957,6.773093 83.101899,6.5449219 81.75,6.5449219 Z m -7.695312,4.3593751 c -0.194559,0.353208 -0.367743,0.721786 -0.515626,1.107422 -0.412199,1.074899 -0.617187,2.225173 -0.617187,3.451172 0,1.293198 0.222769,2.495016 0.667969,3.603515 0.445099,1.091699 1.071007,2.041457 1.878906,2.847656 0.824299,0.8062 1.79677,1.426582 2.917969,1.863282 1.121099,0.436599 2.357085,0.630478 3.708984,0.580078 -0.033,0.2351 -0.05772,0.461388 -0.07422,0.679687 -0.0165,0.2351 -0.02344,0.461388 -0.02344,0.679688 0,0.890199 0.171378,1.654669 0.517578,2.292969 0.3627,0.654999 0.873704,1.150428 1.533203,1.486328 C 84.724727,29.831993 85.508138,30 86.398438,30 c 0.906799,0 1.674281,-0.202369 2.300781,-0.605469 0.626499,-0.403099 1.096956,-0.95671 1.410156,-1.662109 0.3298,-0.705399 0.494141,-1.502379 0.494141,-2.392578 v -4.011719 c -0.537932,-0.385321 -1.073245,-0.77331 -1.601563,-1.171875 -0.920876,-0.708356 -1.819432,-1.446571 -2.759765,-2.128906 -0.221937,0.167373 -0.436261,0.336443 -0.634766,0.509765 -0.577,0.4871 -1.063285,0.99112 -1.458984,1.511719 -0.3957,0.5207 -0.724482,1.03321 -0.988282,1.53711 -0.2473,0.0504 -0.478959,0.0915 -0.693359,0.125 -0.2143,0.0168 -0.452997,0.02539 -0.716797,0.02539 -0.840899,0 -1.62421,-0.159416 -2.349609,-0.478516 -0.7089,-0.319099 -1.32787,-0.756247 -1.855469,-1.310546 -0.5276,-0.571 -0.939529,-1.234436 -1.236328,-1.990235 -0.2968,-0.772599 -0.445313,-1.603941 -0.445313,-2.49414 0,-0.890099 0.148513,-1.712951 0.445313,-2.46875 0.06664,-0.173484 0.140475,-0.339481 0.21875,-0.501953 -0.0058,-0.0033 -0.01177,-0.0064 -0.01758,-0.0098 -0.844913,-0.485858 -1.63825,-1.048866 -2.455078,-1.578125 z m 13.580078,9.269531 v 5.240234 c 0,0.5878 -0.130732,1.05082 -0.394532,1.386719 -0.247299,0.3359 -0.593863,0.503907 -1.039062,0.503907 -0.2473,0 -0.485897,-0.07536 -0.716797,-0.226563 -0.2143,-0.1511 -0.387631,-0.37075 -0.519531,-0.65625 -0.1319,-0.2855 -0.197266,-0.62815 -0.197266,-1.03125 0,-0.2183 0.01593,-0.513313 0.04883,-0.882813 0.0495,-0.369499 0.157466,-0.789466 0.322266,-1.259765 0.1814,-0.4703 0.469535,-0.965629 0.865234,-1.486328 0.3957,-0.5206 0.93836,-1.050491 1.63086,-1.587891 z" />
  <path
     id="path17"
     d="m 100.80664,6.5449219 c -0.675,0 -1.277187,0.1765972 -1.804687,0.5292969 -0.527599,0.3359096 -0.930638,0.8657013 -1.210937,1.5878906 L 93.054688,21.660156 c 0.197481,0.13974 0.39471,0.279578 0.591796,0.419922 0.13504,0.0946 0.269258,0.188603 0.404297,0.283203 0.93043,0.651775 0.272182,1.593244 -0.658203,0.941407 -0.137448,-0.0963 -0.274661,-0.192763 -0.412109,-0.289063 -0.110616,-0.07877 -0.221253,-0.157774 -0.332031,-0.236328 l -0.621094,1.703125 h 3.091797 l 1.384765,-3.904297 h 8.556644 l 1.33593,3.904297 h 3.24024 L 103.84961,8.6367188 c -0.263,-0.7221993 -0.66694,-1.251991 -1.21094,-1.5878907 -0.528,-0.3359096 -1.13903,-0.5039062 -1.83203,-0.5039062 z m 0.0254,2.6210937 c 0.132,0 0.23927,0.04103 0.32227,0.125 0.099,0.08398 0.18009,0.2109464 0.24609,0.3789063 l 2.77149,8.2382811 H 97.394531 L 100.3125,9.6699219 c 0.049,-0.1511599 0.11622,-0.2695357 0.19922,-0.3535157 0.082,-0.1007698 0.18831,-0.1503906 0.32031,-0.1503906 z" />
  <path
     id="path18"
     d="m 112.36328,7.3222656 v 2.3066406 c 0.70367,0.2176388 1.41139,0.4192128 2.13086,0.5839848 0.26835,0.05408 0.53799,0.101705 0.80664,0.154297 V 9.9257812 h 5.75195 c 0.46,0 0.86399,0.1074658 1.20899,0.3222658 0.362,0.2149 0.64089,0.49665 0.83789,0.84375 0.13751,0.241064 0.22391,0.502264 0.26562,0.783203 0.97162,0.178228 1.94322,0.355296 2.91407,0.537109 0.0361,-0.21375 0.0547,-0.431374 0.0547,-0.652343 0,-0.875999 -0.19875,-1.643539 -0.59375,-2.3046879 -0.378,-0.6611593 -0.90412,-1.1823304 -1.57812,-1.5625 -0.659,-0.3801596 -1.41649,-0.5703125 -2.27149,-0.5703125 z m 0,3.5175784 v 13.83789 h 9.77539 c 0.905,0 1.70158,-0.199003 2.39258,-0.595703 0.707,-0.396699 1.2593,-0.940566 1.6543,-1.634765 0.411,-0.6942 0.61718,-1.488261 0.61718,-2.38086 0,-0.677699 -0.13992,-1.315057 -0.41992,-1.910156 -0.28,-0.594999 -0.66615,-1.10731 -1.16015,-1.537109 -0.477,-0.4297 -1.0283,-0.734216 -1.6543,-0.916016 0.543,-0.2149 1.02159,-0.512379 1.43359,-0.892578 0.38694,-0.373472 0.68946,-0.808184 0.91602,-1.298828 -0.88554,-0.165797 -1.77209,-0.327475 -2.6582,-0.490235 -0.049,0.13623 -0.10715,0.270507 -0.1836,0.400391 -0.198,0.3471 -0.48528,0.626897 -0.86328,0.841797 -0.362,0.2148 -0.77437,0.322266 -1.23437,0.322266 h -5.67774 v -3.048829 c -0.35475,-0.06897 -0.71025,-0.133464 -1.06445,-0.205078 -0.2659,-0.06123 -0.53221,-0.117275 -0.79688,-0.183593 -0.36232,-0.09078 -0.71995,-0.196776 -1.07617,-0.308594 z m 2.9375,6.251953 h 5.99805 c 0.511,0 0.95403,0.114303 1.33203,0.345703 0.379,0.2314 0.67467,0.537769 0.88867,0.917969 0.214,0.363599 0.32227,0.768544 0.32227,1.214843 0,0.4297 -0.10827,0.843535 -0.32227,1.240235 -0.198,0.380199 -0.48528,0.684616 -0.86328,0.916015 -0.378,0.2149 -0.81559,0.322266 -1.30859,0.322266 h -6.04688 z" />
  <path
     id="path19"
     d="m 137.71875,7 c -1.366,0 -2.60952,0.2305498 -3.72852,0.6933594 -1.10299,0.4628095 -2.04789,1.1090977 -2.83789,1.9355468 -0.773,0.8263988 -1.37473,1.7841008 -1.80273,2.8749998 -0.0604,0.152012 -0.11609,0.305618 -0.16797,0.460938 0.84953,0.162604 1.69974,0.322466 2.54883,0.488281 0.111,0.02202 0.22114,0.04782 0.33203,0.07031 0.009,-0.02543 0.0177,-0.05088 0.0273,-0.07617 0.313,-0.7769 0.74021,-1.447767 1.28321,-2.009766 0.559,-0.578499 1.20178,-1.023891 1.92578,-1.337891 0.74,-0.3305993 1.54792,-0.4960934 2.41992,-0.4960934 0.872,0 1.67697,0.1654941 2.41797,0.4960934 0.74,0.314 1.38278,0.759392 1.92578,1.337891 0.559,0.561999 0.9862,1.232866 1.2832,2.009766 0.296,0.776799 0.44336,1.618244 0.44336,2.527343 0,0.210547 -0.008,0.417639 -0.0234,0.621094 0.38419,0.132148 0.76628,0.269758 1.14649,0.414063 0.58466,0.196425 1.14095,0.454286 1.68555,0.738281 0.10323,-0.572942 0.15429,-1.164607 0.15429,-1.773438 0,-1.239698 -0.21458,-2.396304 -0.64257,-3.470703 -0.428,-1.090899 -1.03618,-2.048601 -1.82618,-2.8749998 -0.789,-0.8264491 -1.73589,-1.4727373 -2.83789,-1.9355468 C 140.34231,7.2305498 139.10075,7 137.71875,7 Z m -8.82813,7.078125 c -0.11963,0.609546 -0.18164,1.240664 -0.18164,1.896484 0,1.239699 0.21363,2.405195 0.64063,3.496094 0.428,1.090899 1.02973,2.050554 1.80273,2.876953 0.79,0.826499 1.7349,1.479685 2.83789,1.958985 1.119,0.462799 2.36252,0.693359 3.72852,0.693359 1.382,0 2.62356,-0.23056 3.72656,-0.693359 1.102,-0.4793 2.04889,-1.132486 2.83789,-1.958985 0.79,-0.826399 1.39818,-1.786054 1.82618,-2.876953 0.0749,-0.190943 0.14132,-0.384576 0.20312,-0.580078 -0.58115,-0.314528 -1.17657,-0.598573 -1.80664,-0.808594 -0.30625,-0.116307 -0.61479,-0.227946 -0.92383,-0.335937 -0.064,0.258819 -0.14275,0.512224 -0.23633,0.757812 -0.297,0.776899 -0.7242,1.463595 -1.2832,2.058594 -0.543,0.578499 -1.18578,1.023891 -1.92578,1.337891 -0.741,0.314099 -1.54597,0.470703 -2.41797,0.470703 -0.872,0 -1.67992,-0.156604 -2.41992,-0.470703 -0.724,-0.314 -1.36678,-0.759392 -1.92578,-1.337891 -0.543,-0.594999 -0.97021,-1.272804 -1.28321,-2.033203 -0.296,-0.776799 -0.44336,-1.629089 -0.44336,-2.554688 0,-0.465139 0.0397,-0.911278 0.11719,-1.341797 -0.0841,-0.01698 -0.16778,-0.03603 -0.25195,-0.05273 -0.87318,-0.17052 -1.74732,-0.334702 -2.6211,-0.501953 z" />
  <path
     id="path20"
     d="m 147.35547,7.3222656 v 2.6035156 h 5.03515 v 9.8437498 c 0,0.30145 0.025,0.591733 0.0684,0.875 0.24426,0.05617 0.49001,0.106301 0.73633,0.152344 0.39685,0.06494 0.20417,0.0348 0.57617,0.08789 1.12461,0.160493 0.96236,1.298168 -0.1621,1.136718 -0.40379,-0.05797 -0.19481,-0.02686 -0.625,-0.09766 -0.0574,-0.0108 -0.11451,-0.024 -0.17188,-0.03516 0.0524,0.121428 0.10762,0.242057 0.16992,0.359375 0.412,0.743799 0.97913,1.338857 1.70313,1.785156 0.724,0.4297 1.57197,0.644531 2.54297,0.644531 h 1.20898 v -2.603515 h -1.18359 c -0.559,0 -1.02082,-0.190113 -1.38282,-0.570313 -0.362,-0.380099 -0.54297,-0.834382 -0.54297,-1.363281 V 9.9257812 h 5.03516 V 7.3222656 Z" />
  <defs
     id="defs33">
    <linearGradient
       id="paint0_linear_26_2690"
       x1="3.00592"
       y1="22.5336"
       x2="3.00592"
       y2="11.0999"
       gradientUnits="userSpaceOnUse"
       gradientTransform="translate(8.4918033,-0.2295082)">
      <stop
         stop-color="#1BB682"
         id="stop20" />
      <stop
         offset="1"
         stop-color="#3AEDB1"
         id="stop21" />
    </linearGradient>
    <linearGradient
       id="paint1_linear_26_2690"
       x1="23.564"
       y1="22.5336"
       x2="23.564"
       y2="11.0999"
       gradientUnits="userSpaceOnUse"
       gradientTransform="translate(8.4918033,-0.2295082)">
      <stop
         stop-color="#1BB682"
         id="stop22" />
      <stop
         offset="1"
         stop-color="#3AEDB1"
         id="stop23" />
    </linearGradient>
    <linearGradient
       id="paint2_linear_26_2690"
       x1="13.284"
       y1="11.1373"
       x2="13.284"
       y2="3.03581"
       gradientUnits="userSpaceOnUse"
       gradientTransform="translate(8.4918033,-0.2295082)">
      <stop
         stop-color="#1BB682"
         id="stop24" />
      <stop
         offset="1"
         stop-color="#3AEDB1"
         id="stop25" />
    </linearGradient>
    <linearGradient
       id="paint3_linear_26_2690"
       x1="13.2872"
       y1="40.9293"
       x2="13.2872"
       y2="4.0442"
       gradientUnits="userSpaceOnUse"
       gradientTransform="translate(7.5737705,-0.80327872)">
      <stop
         stop-color="#1BB682"
         id="stop26" />
      <stop
         offset="1"
         stop-color="#3AEDB1"
         id="stop27" />
    </linearGradient>
    <linearGradient
       id="paint4_linear_26_2690"
       x1="13.2842"
       y1="7.30298"
       x2="13.2842"
       y2="-0.363489"
       gradientUnits="userSpaceOnUse"
       gradientTransform="translate(8.4918033,-0.2295082)">
      <stop
         stop-color="#1BB682"
         id="stop28" />
      <stop
         offset="1"
         stop-color="#3AEDB1"
         id="stop29" />
    </linearGradient>
    <linearGradient
       id="paint5_linear_26_2690"
       x1="17.7083"
       y1="20.3334"
       x2="17.7083"
       y2="15.1634"
       gradientUnits="userSpaceOnUse"
       gradientTransform="translate(8.4918033,-0.2295082)">
      <stop
         stop-color="#1BB682"
         id="stop30" />
      <stop
         offset="1"
         stop-color="#3AEDB1"
         id="stop31" />
    </linearGradient>
    <linearGradient
       id="paint6_linear_26_2690"
       x1="8.97101"
       y1="20.3334"
       x2="8.97101"
       y2="15.1634"
       gradientUnits="userSpaceOnUse"
       gradientTransform="translate(8.4918033,-0.2295082)">
      <stop
         stop-color="#1BB682"
         id="stop32" />
      <stop
         offset="1"
         stop-color="#3AEDB1"
         id="stop33" />
    </linearGradient>
  </defs>
  <text
     xml:space="preserve"
     style="fill:#000000"
     x="55.885246"
     y="17.90164"
     id="text53"><tspan
       sodipodi:role="line"
       id="tspan53"
       x="55.885246"
       y="17.90164" /></text>
  <text
     xml:space="preserve"
     style="white-space:pre;inline-size:57.1297;display:inline;fill:#44e514;fill-opacity:1;fill-rule:nonzero;stroke-width:0.999739;stroke-dasharray:none"
     x="39.934425"
     y="20.311476"
     id="text57"
     transform="matrix(1.7540234,0,0,2.0354258,-30.799503,-16.743691)"><tspan
       x="39.934425"
       y="20.311476"
       id="tspan2">AVOK<tspan
   style="fill:#ffffff"
   id="tspan1">AI</tspan></tspan></text>
</svg>
